<?xml version="1.0" standalone="no"?>
<!DOCTYPE svg PUBLIC "-//W3C//DTD SVG 20010904//EN"
 "http://www.w3.org/TR/2001/REC-SVG-20010904/DTD/svg10.dtd">
<svg version="1.0" xmlns="http://www.w3.org/2000/svg"
 width="345.000000pt" height="172.000000pt" viewBox="0 0 345.000000 172.000000"
 preserveAspectRatio="xMidYMid meet">

<g transform="translate(0.000000,172.000000) scale(0.100000,-0.100000)"
fill="#000000" stroke="none">
<path d="M637 1166 c-55 -20 -102 -60 -142 -120 -36 -54 -43 -76 -25 -76 6 0
10 9 10 20 0 27 42 43 74 29 30 -14 38 -39 22 -71 -10 -21 -19 -23 -93 -26
l-82 -3 29 80 c15 44 39 95 54 114 14 18 26 37 26 40 0 4 -29 7 -64 7 l-63 0
-42 -118 c-23 -64 -49 -123 -59 -129 -13 -9 13 -12 126 -12 140 -1 143 -1 169
25 20 20 24 32 19 55 -8 40 8 68 49 85 53 22 107 18 149 -11 l37 -25 39 20
c36 18 39 22 27 41 -39 64 -180 105 -260 75z"/>
<path d="M1094 1010 l-41 -120 27 0 c19 0 29 6 33 20 4 17 14 20 55 20 41 0
51 -3 55 -20 3 -13 14 -20 29 -20 l24 0 -40 120 c-40 118 -41 120 -71 120 -30
0 -31 -2 -71 -120z m96 -17 c0 -18 -5 -21 -27 -19 -16 2 -29 4 -30 5 -1 0 5
22 14 48 l17 48 12 -30 c7 -17 13 -40 14 -52z"/>
<path d="M1310 1010 c0 -113 1 -120 20 -120 19 0 20 7 20 120 0 113 -1 120
-20 120 -19 0 -20 -7 -20 -120z"/>
<path d="M1404 1117 c-2 -7 -3 -60 -2 -118 3 -96 4 -104 23 -104 16 0 21 8 23
38 4 51 31 50 61 -3 14 -25 29 -40 42 -40 24 0 24 4 -3 51 l-22 39 22 23 c30
32 28 72 -4 102 -22 20 -37 25 -81 25 -35 0 -55 -5 -59 -13z m120 -53 c9 -24
-12 -44 -45 -44 -26 0 -29 4 -29 30 0 27 3 30 34 30 22 0 36 -6 40 -16z"/>
<path d="M1686 1096 c-31 -29 -36 -40 -36 -77 1 -53 16 -84 56 -110 38 -25 81
-24 123 2 31 19 33 22 17 37 -12 13 -18 14 -28 4 -7 -7 -31 -12 -54 -12 -33 0
-47 5 -58 22 -23 33 -20 75 9 103 28 29 61 32 94 9 20 -15 25 -15 38 -2 13 14
11 18 -15 37 -47 33 -103 29 -146 -13z"/>
<path d="M1907 1123 c-11 -11 -8 -160 4 -186 19 -42 78 -59 122 -35 40 21 46
40 47 136 0 91 0 92 -25 92 -24 0 -24 -2 -27 -92 l-3 -93 -35 0 -35 0 -3 93
c-2 81 -5 92 -21 92 -10 0 -21 -3 -24 -7z"/>
<path d="M2130 1009 c0 -109 2 -120 18 -117 11 2 18 14 20 38 4 34 18 53 34
44 5 -3 17 -23 28 -45 15 -29 26 -39 45 -39 l25 0 -22 41 c-17 33 -19 45 -10
58 28 38 32 62 17 91 -20 39 -43 50 -104 50 l-51 0 0 -121z m115 41 c0 -22 -5
-25 -37 -28 -36 -3 -38 -2 -38 26 0 37 4 41 43 33 26 -6 32 -12 32 -31z"/>
<path d="M2340 1010 c0 -112 1 -120 19 -120 16 0 20 8 23 42 2 23 9 43 15 45
7 3 25 -16 40 -41 20 -34 34 -46 51 -46 l24 0 -25 45 c-16 28 -22 47 -15 51 5
4 16 20 23 38 11 26 11 35 -1 58 -19 37 -43 48 -103 48 l-51 0 0 -120z m115
40 c0 -22 -5 -25 -37 -28 -36 -3 -38 -2 -38 26 0 37 4 41 43 33 26 -6 32 -12
32 -31z"/>
<path d="M2550 1010 l0 -121 68 3 c61 3 67 5 70 26 3 20 0 22 -47 22 -48 0
-51 2 -51 25 0 23 4 25 45 25 38 0 45 3 45 19 0 16 -8 20 -42 23 -38 3 -43 6
-43 27 0 22 4 25 45 25 39 1 45 4 48 24 3 21 0 22 -67 22 l-71 0 0 -120z"/>
<path d="M2730 1009 c0 -119 0 -120 23 -117 20 3 22 9 23 61 1 32 4 60 6 62 2
3 26 -24 52 -60 69 -95 76 -90 76 56 0 119 0 120 -22 117 -21 -3 -23 -9 -24
-61 -1 -31 -3 -60 -6 -62 -2 -3 -26 24 -52 60 -69 95 -76 90 -76 -56z"/>
<path d="M2946 1113 c-9 -23 2 -33 35 -33 l29 0 0 -95 c0 -88 1 -95 20 -95 18
0 20 7 21 83 2 118 0 112 32 109 25 -3 28 -1 25 19 -3 22 -8 23 -80 25 -59 1
-78 -2 -82 -13z"/>
<path d="M650 980 c-11 -11 -20 -28 -20 -37 1 -13 5 -11 15 9 19 35 50 44 80
24 27 -18 34 -63 13 -84 -9 -9 -79 -12 -254 -12 -151 0 -245 -4 -249 -10 -10
-16 476 -13 496 3 18 14 39 50 39 67 0 20 -49 60 -75 60 -14 0 -34 -9 -45 -20z"/>
<path d="M210 910 c0 -5 7 -10 15 -10 8 0 15 5 15 10 0 6 -7 10 -15 10 -8 0
-15 -4 -15 -10z"/>
<path d="M150 870 c0 -5 12 -10 26 -10 14 0 23 4 19 10 -3 6 -15 10 -26 10
-10 0 -19 -4 -19 -10z"/>
<path d="M395 830 c-84 -6 -79 -6 65 -8 101 -2 164 -7 180 -15 51 -26 27 -97
-32 -97 -24 0 -32 6 -41 30 -10 25 -27 42 -27 25 0 -15 25 -55 39 -60 29 -12
162 -16 198 -6 42 12 92 44 116 77 17 23 17 23 -22 44 l-40 20 -37 -25 c-46
-31 -95 -32 -135 -3 -34 26 -104 30 -264 18z"/>
<path d="M1083 833 c-21 -4 -23 -10 -23 -64 l0 -59 35 0 c39 0 48 17 13 22
-13 2 -23 10 -23 18 0 10 8 14 23 12 12 -2 22 1 22 7 0 5 -10 11 -22 13 -31 4
-34 26 -4 34 14 3 23 10 20 15 -3 5 -8 8 -12 8 -4 -1 -17 -4 -29 -6z"/>
<path d="M1295 815 c-14 -13 -25 -31 -25 -40 0 -23 45 -65 70 -65 23 0 60 33
60 55 0 10 -10 15 -30 15 -16 0 -30 -4 -30 -10 0 -5 7 -10 15 -10 17 0 20 -16
4 -25 -19 -12 -57 4 -63 27 -8 31 28 62 54 48 25 -13 30 -13 30 4 0 14 -21 26
-46 26 -8 0 -26 -11 -39 -25z"/>
<path d="M1606 833 c-3 -4 -6 -33 -6 -65 l0 -58 35 0 c19 0 35 5 35 10 0 6
-11 10 -24 10 -31 0 -43 28 -13 32 12 2 20 8 17 13 -2 6 -10 9 -17 7 -7 -2
-13 2 -13 8 0 5 0 13 0 17 0 4 9 8 20 8 11 0 21 4 22 9 3 10 -47 18 -56 9z"/>
<path d="M1703 833 c-9 -3 -13 -26 -13 -64 l0 -59 34 0 c42 0 57 17 19 22 -36
4 -43 28 -8 28 17 0 25 5 23 12 -3 7 -13 13 -24 13 -10 0 -19 7 -19 15 0 9 9
15 22 15 24 1 44 15 22 16 -8 0 -21 2 -29 3 -8 2 -21 1 -27 -1z"/>
<path d="M1795 832 c-9 -10 -5 -122 5 -122 6 0 10 9 10 19 0 31 16 33 35 5 18
-28 33 -26 17 2 -7 13 -6 24 4 39 11 17 12 25 1 39 -12 17 -61 29 -72 18z m60
-37 c0 -5 -10 -11 -22 -13 -16 -2 -23 2 -23 13 0 11 7 15 23 13 12 -2 22 -7
22 -13z"/>
<path d="M2096 819 c-15 -12 -26 -30 -26 -44 0 -26 42 -65 70 -65 21 0 50 31
50 53 0 11 -8 17 -25 17 -14 0 -25 -4 -25 -10 0 -5 7 -10 15 -10 20 0 19 -19
-1 -27 -27 -10 -64 14 -64 41 0 31 25 46 65 39 29 -4 29 -4 11 11 -26 21 -38
20 -70 -5z"/>
<path d="M2270 825 c-16 -20 -6 -43 25 -57 37 -17 33 -41 -5 -33 -35 8 -39 1
-10 -15 31 -16 60 -3 60 26 0 19 -8 28 -30 36 -38 13 -34 34 5 30 26 -4 28 -2
16 12 -17 20 -45 21 -61 1z"/>
<path d="M2390 822 c-40 -33 -18 -112 32 -112 23 0 68 43 68 65 0 20 -44 65
-63 65 -8 0 -25 -8 -37 -18z m64 -18 c9 -8 16 -22 16 -29 0 -18 -27 -45 -45
-45 -18 0 -45 28 -45 45 0 13 37 45 52 45 3 0 14 -7 22 -16z"/>
<path d="M2668 788 c-3 -45 -6 -53 -23 -53 -17 0 -20 8 -23 48 -4 62 -22 61
-22 -1 0 -50 12 -72 41 -72 30 0 49 29 49 75 0 63 -18 66 -22 3z"/>
<path d="M2887 819 c-33 -25 -35 -61 -5 -89 28 -25 52 -26 78 0 55 55 -13 137
-73 89z m63 -13 c28 -35 -11 -93 -47 -70 -24 15 -28 48 -8 68 20 20 39 20 55
2z"/>
<path d="M258 823 c7 -3 16 -2 19 1 4 3 -2 6 -13 5 -11 0 -14 -3 -6 -6z"/>
<path d="M1160 770 c0 -33 4 -60 10 -60 6 0 10 17 10 38 l1 37 28 -32 c15 -18
31 -33 34 -33 4 0 7 25 7 55 0 30 -4 55 -10 55 -5 0 -10 -15 -10 -32 l-1 -33
-27 33 c-15 18 -30 32 -34 32 -5 0 -8 -27 -8 -60z"/>
<path d="M1420 777 c0 -52 6 -71 19 -63 10 6 0 116 -10 116 -5 0 -9 -24 -9
-53z"/>
<path d="M1470 776 c0 -30 5 -58 10 -61 6 -4 10 6 10 24 0 43 12 45 39 5 13
-18 27 -31 32 -29 4 3 8 30 8 60 -1 41 -5 55 -16 55 -8 0 -13 -8 -12 -17 4
-44 -2 -47 -27 -15 -14 17 -30 32 -35 32 -5 0 -9 -24 -9 -54z"/>
<path d="M1900 769 c0 -42 4 -59 12 -57 10 4 12 24 9 98 -1 11 -5 20 -11 20
-6 0 -10 -27 -10 -61z"/>
<path d="M1952 775 c2 -30 7 -54 13 -53 5 2 8 9 7 17 -2 7 -1 20 3 29 4 12 11
7 31 -19 14 -19 28 -34 32 -34 4 0 7 26 8 58 0 39 -3 57 -12 57 -7 0 -11 -10
-9 -25 4 -37 -9 -38 -34 -5 -32 44 -42 38 -39 -25z"/>
<path d="M2512 773 c3 -61 17 -74 56 -57 14 6 13 8 -8 13 -22 6 -25 13 -28 54
-2 26 -8 47 -13 47 -6 0 -9 -24 -7 -57z"/>
<path d="M2710 820 c0 -5 7 -10 15 -10 11 0 15 -12 15 -50 0 -27 5 -50 10 -50
6 0 10 23 10 50 0 37 4 50 14 50 8 0 18 5 21 10 4 6 -12 10 -39 10 -25 0 -46
-4 -46 -10z"/>
<path d="M2820 770 c0 -33 4 -60 10 -60 6 0 10 27 10 60 0 33 -4 60 -10 60 -6
0 -10 -27 -10 -60z"/>
<path d="M3010 770 c0 -33 4 -60 10 -60 6 0 10 17 10 38 l1 37 29 -32 c16 -18
32 -33 35 -33 3 0 5 25 5 55 0 30 -4 55 -10 55 -5 0 -10 -15 -10 -32 l-1 -33
-28 33 c-15 17 -31 32 -34 32 -4 0 -7 -27 -7 -60z"/>
<path d="M238 740 l-16 -50 53 0 53 0 16 47 c9 26 16 48 16 50 0 2 -24 3 -53
3 l-53 0 -16 -50z"/>
</g>
</svg>
